<svg width="151" height="31" viewBox="0 0 151 31" fill="none" xmlns="http://www.w3.org/2000/svg">
<g clip-path="url(#clip0)">
<path d="M68.0903 27.6672C63.7778 27.6672 60.8806 25.1875 60.8806 21.4916C60.8806 17.7879 63.7934 15.557 68.6728 15.5215H75.8473V14.3645C75.8473 11.2847 73.7438 9.51967 70.0764 9.51967C68.3718 9.51967 66.6397 9.96585 64.9038 10.8503C64.2469 11.186 63.4415 10.9688 63.0701 10.3449C62.6713 9.67761 62.9332 8.82473 63.6331 8.46936C65.9008 7.32428 67.9221 6.77148 71.1125 6.77148C76.3907 6.77148 79.4404 9.34988 79.4795 13.8433L79.5186 27.4697C77.5129 27.4697 75.8903 25.8824 75.8903 23.9239V23.9042L74.9637 25.0256C73.5327 26.7511 71.1555 27.6672 68.0903 27.6672ZM69.3688 17.9024C64.8256 17.9024 64.3017 19.8372 64.3017 21.2903C64.3017 23.5449 66.1784 25.0019 69.0794 25.0019C72.7195 25.0019 75.5619 23.0869 75.8395 20.4532L75.8434 20.4255V17.9024H69.3688Z" fill="white"/>
<path d="M88.2456 25.7561L81.771 9.37359C81.3448 8.29564 82.158 7.13477 83.3427 7.13477H83.546C84.2498 7.13477 84.8832 7.56516 85.1256 8.20877L91.2092 24.2398L97.2068 8.21667C97.4492 7.56911 98.0826 7.13477 98.7903 7.13477C99.971 7.13477 100.788 8.29169 100.366 9.36964L93.9578 25.7442C93.5043 26.9012 92.3665 27.6672 91.0997 27.6672C89.833 27.6672 88.6991 26.9091 88.2456 25.7561Z" fill="white"/>
<path d="M112.74 27.6711C106.324 27.6514 102.015 23.462 102.012 17.2509C102.008 11.028 106.269 6.83468 112.611 6.81494C115.817 6.82284 118.276 7.71126 119.926 9.45652C121.588 11.2136 122.432 13.8118 122.452 17.1957C122.456 17.9419 121.83 18.5461 121.068 18.5421L105.64 18.4947L105.781 19.1146C106.582 22.6881 109.389 24.9151 113.111 24.9269C115.051 24.9308 116.881 24.382 118.398 23.3475C118.945 22.9763 119.696 23.0671 120.153 23.5489C120.708 24.1332 120.622 25.0572 119.973 25.5271C118.014 26.9446 115.551 27.679 112.74 27.6711ZM112.65 9.51969C108.889 9.50785 106.222 11.8098 105.687 15.5294L105.605 16.1098L118.769 16.1493C119.066 16.1493 119.305 15.9084 119.289 15.6162C119.109 11.8691 116.568 9.53154 112.65 9.51969Z" fill="white"/>
<path d="M136.684 27.6677C130.119 27.6677 125.713 23.4625 125.713 17.2001C125.713 10.9851 130.123 6.81152 136.684 6.81152C143.221 6.81152 147.615 10.9851 147.615 17.2001C147.615 23.4625 143.221 27.6677 136.684 27.6677ZM136.684 9.76108C132.41 9.76108 129.423 12.8528 129.423 17.2791C129.423 21.7054 132.41 24.7971 136.684 24.7971C140.934 24.7971 143.901 21.7054 143.901 17.2791C143.901 12.8528 140.934 9.76108 136.684 9.76108Z" fill="white"/>
<path d="M47.341 27.6675C45.2219 27.6675 43.5055 25.9894 43.5055 23.9203V17.7488C43.5055 15.6718 45.2219 13.9897 47.341 13.9897L47.861 14.0095H55.2779C55.2779 15.7942 53.7961 17.2433 51.9702 17.2433H47.341V27.6675Z" fill="white"/>
<path d="M43.5016 8.00759V3.33252H61.8855C61.8698 5.1449 60.3606 6.60586 58.5035 6.60586H47.3371V11.7666C45.2219 11.7666 43.5016 10.0845 43.5016 8.00759Z" fill="white"/>
<path d="M10.505 0.0358785C14.4109 0.0042902 17.6013 3.17497 17.6326 7.11561C17.6638 11.0602 14.5243 14.2822 10.6223 14.3138C6.71642 14.3493 3.52603 11.1787 3.49475 7.23407C3.45957 3.28948 6.59913 0.0674669 10.505 0.0358785Z" fill="white"/>
<path d="M11.3939 31.02L3.89224 31.0147C3.70061 31.013 3.54546 30.8576 3.54707 30.6642L3.5452 23.8748C3.5469 19.9315 6.71431 16.7394 10.6177 16.7434C14.5249 16.7474 17.6897 19.946 17.6881 23.8854L17.6893 24.6709C17.6913 28.1801 14.871 31.0201 11.3939 31.02Z" fill="white"/>
<path d="M26.9651 30.9686C23.0592 31.0002 19.8688 27.8295 19.8375 23.8889C19.8062 19.9443 22.9458 16.7223 26.8478 16.6907C30.7537 16.6591 33.9441 19.8298 33.9753 23.7704C34.0105 27.711 30.871 30.9331 26.9651 30.9686Z" fill="white"/>
<path d="M26.1387 0.0600435L33.9859 0.0626107L33.9833 7.20182C33.9808 11.1465 30.8137 14.3406 26.9116 14.3375C23.0056 14.3344 19.8425 11.1355 19.8451 7.19472L19.844 6.40892C19.8428 2.90247 22.6628 0.0568131 26.1387 0.0600435Z" fill="white"/>
</g>
<defs>
<clipPath id="clip0">
<rect width="151" height="31" fill="white"/>
</clipPath>
</defs>
</svg>
